<svg xmlns="http://www.w3.org/2000/svg" xmlns:xlink="http://www.w3.org/1999/xlink" width="57" zoomAndPan="magnify" viewBox="0 0 42.75 42.749999" height="57" preserveAspectRatio="xMidYMid meet" version="1.0"><defs><clipPath id="52fac2a4bb"><path d="M 0 0 L 40.265625 0 L 40.265625 40.265625 L 0 40.265625 Z M 0 0 " clip-rule="nonzero"/></clipPath></defs><g clip-path="url(#52fac2a4bb)"><path fill="#4c8bb7" d="M 20.3125 0 C 19.648438 0 18.984375 0.03125 18.320312 0.0976562 C 17.660156 0.164062 17.003906 0.261719 16.351562 0.390625 C 15.699219 0.519531 15.054688 0.679688 14.417969 0.875 C 13.78125 1.066406 13.152344 1.292969 12.539062 1.546875 C 11.925781 1.800781 11.324219 2.085938 10.738281 2.398438 C 10.152344 2.710938 9.582031 3.054688 9.027344 3.421875 C 8.472656 3.792969 7.941406 4.1875 7.425781 4.609375 C 6.914062 5.03125 6.417969 5.480469 5.949219 5.949219 C 5.480469 6.417969 5.03125 6.914062 4.609375 7.425781 C 4.1875 7.941406 3.792969 8.472656 3.421875 9.027344 C 3.054688 9.582031 2.710938 10.152344 2.398438 10.738281 C 2.085938 11.324219 1.800781 11.925781 1.546875 12.539062 C 1.292969 13.152344 1.066406 13.78125 0.875 14.417969 C 0.679688 15.054688 0.519531 15.699219 0.390625 16.351562 C 0.261719 17.003906 0.164062 17.660156 0.0976562 18.320312 C 0.03125 18.984375 0 19.648438 0 20.3125 C 0 20.976562 0.03125 21.640625 0.0976562 22.304688 C 0.164062 22.964844 0.261719 23.625 0.390625 24.277344 C 0.519531 24.929688 0.679688 25.574219 0.875 26.210938 C 1.066406 26.847656 1.292969 27.472656 1.546875 28.085938 C 1.800781 28.699219 2.085938 29.300781 2.398438 29.886719 C 2.710938 30.476562 3.054688 31.042969 3.421875 31.597656 C 3.792969 32.152344 4.1875 32.683594 4.609375 33.199219 C 5.03125 33.714844 5.480469 34.207031 5.949219 34.675781 C 6.417969 35.148438 6.914062 35.59375 7.425781 36.015625 C 7.941406 36.4375 8.472656 36.832031 9.027344 37.203125 C 9.582031 37.570312 10.152344 37.914062 10.738281 38.226562 C 11.324219 38.539062 11.925781 38.824219 12.539062 39.078125 C 13.152344 39.335938 13.78125 39.558594 14.417969 39.75 C 15.054688 39.945312 15.699219 40.105469 16.351562 40.234375 C 17.003906 40.363281 17.660156 40.460938 18.320312 40.527344 C 18.984375 40.59375 19.648438 40.625 20.3125 40.625 C 20.976562 40.625 21.640625 40.59375 22.304688 40.527344 C 22.964844 40.460938 23.625 40.363281 24.277344 40.234375 C 24.929688 40.105469 25.574219 39.945312 26.210938 39.75 C 26.847656 39.558594 27.472656 39.335938 28.085938 39.078125 C 28.699219 38.824219 29.300781 38.539062 29.886719 38.226562 C 30.476562 37.914062 31.042969 37.570312 31.597656 37.203125 C 32.152344 36.832031 32.683594 36.4375 33.199219 36.015625 C 33.714844 35.59375 34.207031 35.148438 34.675781 34.675781 C 35.148438 34.207031 35.59375 33.714844 36.015625 33.199219 C 36.4375 32.683594 36.832031 32.152344 37.203125 31.597656 C 37.570312 31.042969 37.914062 30.476562 38.226562 29.886719 C 38.539062 29.300781 38.824219 28.699219 39.078125 28.085938 C 39.335938 27.472656 39.558594 26.847656 39.75 26.210938 C 39.945312 25.574219 40.105469 24.929688 40.234375 24.277344 C 40.363281 23.625 40.460938 22.964844 40.527344 22.304688 C 40.59375 21.640625 40.625 20.976562 40.625 20.3125 C 40.625 19.648438 40.59375 18.984375 40.527344 18.320312 C 40.460938 17.660156 40.363281 17.003906 40.234375 16.351562 C 40.105469 15.699219 39.945312 15.054688 39.75 14.417969 C 39.558594 13.78125 39.332031 13.15625 39.078125 12.539062 C 38.824219 11.925781 38.539062 11.324219 38.226562 10.738281 C 37.914062 10.152344 37.570312 9.582031 37.203125 9.027344 C 36.832031 8.476562 36.4375 7.941406 36.015625 7.425781 C 35.59375 6.914062 35.144531 6.421875 34.675781 5.949219 C 34.203125 5.480469 33.710938 5.035156 33.199219 4.613281 C 32.683594 4.191406 32.152344 3.792969 31.597656 3.425781 C 31.042969 3.054688 30.472656 2.710938 29.886719 2.398438 C 29.300781 2.085938 28.699219 1.800781 28.085938 1.546875 C 27.472656 1.292969 26.84375 1.070312 26.210938 0.875 C 25.574219 0.683594 24.929688 0.519531 24.277344 0.390625 C 23.625 0.261719 22.964844 0.164062 22.304688 0.0976562 C 21.640625 0.03125 20.976562 0 20.3125 0 Z M 10.957031 10.289062 L 29.667969 10.289062 C 30.070312 10.289062 30.457031 10.359375 30.832031 10.496094 C 31.203125 10.636719 31.542969 10.835938 31.847656 11.097656 C 32.148438 11.355469 32.398438 11.660156 32.589844 12.011719 C 32.785156 12.359375 32.910156 12.730469 32.96875 13.128906 C 32.703125 13.273438 22.421875 19.203125 21.742188 19.589844 C 21.296875 19.839844 20.820312 19.964844 20.3125 19.964844 C 19.804688 19.964844 19.328125 19.839844 18.882812 19.589844 C 18.21875 19.207031 7.910156 13.335938 7.65625 13.179688 C 7.707031 12.777344 7.832031 12.402344 8.023438 12.046875 C 8.210938 11.691406 8.460938 11.378906 8.761719 11.113281 C 9.066406 10.847656 9.40625 10.644531 9.785156 10.503906 C 10.164062 10.359375 10.554688 10.289062 10.957031 10.289062 Z M 33.007812 26.996094 C 33.007812 27.441406 32.921875 27.867188 32.753906 28.273438 C 32.582031 28.683594 32.34375 29.042969 32.027344 29.355469 C 31.714844 29.667969 31.355469 29.910156 30.945312 30.082031 C 30.539062 30.25 30.113281 30.335938 29.667969 30.335938 L 10.957031 30.335938 C 10.511719 30.335938 10.089844 30.25 9.679688 30.082031 C 9.269531 29.910156 8.910156 29.667969 8.597656 29.355469 C 8.285156 29.042969 8.042969 28.683594 7.871094 28.273438 C 7.703125 27.867188 7.617188 27.441406 7.617188 26.996094 L 7.617188 14.695312 L 18.230469 20.75 C 18.878906 21.117188 19.570312 21.304688 20.316406 21.304688 C 21.058594 21.304688 21.753906 21.117188 22.402344 20.75 L 33.007812 14.644531 Z M 33.007812 26.996094 " fill-opacity="1" fill-rule="nonzero"/></g></svg>