<svg xmlns="http://www.w3.org/2000/svg" xmlns:xlink="http://www.w3.org/1999/xlink" width="540" zoomAndPan="magnify" viewBox="0 0 404.88 86.999996" height="116" preserveAspectRatio="xMidYMid meet" version="1.0"><defs><g/></defs><g fill="#1c2f57" fill-opacity="1"><g transform="translate(2.225903, 72.741327)"><g><path d="M 38.203125 -56.890625 C 32.953125 -57.734375 24.140625 -57.734375 18.890625 -56.890625 L 1.046875 -1.359375 C 5.03125 0.3125 10.609375 1.359375 14.703125 1.046875 L 18.375 -11.65625 L 37.890625 -11.65625 L 41.671875 1.046875 C 45.765625 1.359375 51.953125 0.3125 55.953125 -1.359375 Z M 21.515625 -22.890625 L 27.921875 -45.234375 L 34.53125 -22.890625 Z M 21.515625 -22.890625 "/></g></g></g><g fill="#1c2f57" fill-opacity="1"><g transform="translate(59.224044, 72.741327)"><g><path d="M 17.84375 1.578125 C 29.8125 1.578125 37.265625 -3.15625 37.265625 -12.390625 C 37.265625 -19.53125 32.328125 -22.5625 22.671875 -24.984375 L 19.734375 -25.828125 C 16.484375 -26.765625 15.53125 -27.390625 15.53125 -29.28125 C 15.53125 -29.8125 15.75 -30.234375 15.75 -30.546875 C 16.6875 -30.859375 18.890625 -31.078125 21.625 -31.078125 C 26.140625 -31.078125 30.234375 -30.34375 32.859375 -29.1875 C 34.328125 -32.75 35.171875 -36.640625 35.0625 -40 C 32.125 -41.046875 27.390625 -41.78125 22.5625 -41.78125 C 10.5 -41.78125 3.15625 -36.953125 3.15625 -28.234375 C 3.15625 -20.671875 7.765625 -18.046875 17.84375 -15.53125 L 20.78125 -14.703125 C 23.9375 -13.859375 24.875 -13.015625 24.875 -11.234375 C 24.875 -10.609375 24.671875 -10.1875 24.671875 -9.96875 C 23.625 -9.546875 21.625 -9.234375 18.578125 -9.234375 C 13.328125 -9.234375 8.296875 -10.28125 5.5625 -12.078125 C 3.984375 -8.921875 3.046875 -5.453125 2.734375 -1.78125 C 6.1875 0.3125 10.609375 1.578125 17.84375 1.578125 Z M 17.84375 1.578125 "/></g></g></g><g fill="#1c2f57" fill-opacity="1"><g transform="translate(98.797348, 72.741327)"><g><path d="M 17.84375 1.578125 C 29.8125 1.578125 37.265625 -3.15625 37.265625 -12.390625 C 37.265625 -19.53125 32.328125 -22.5625 22.671875 -24.984375 L 19.734375 -25.828125 C 16.484375 -26.765625 15.53125 -27.390625 15.53125 -29.28125 C 15.53125 -29.8125 15.75 -30.234375 15.75 -30.546875 C 16.6875 -30.859375 18.890625 -31.078125 21.625 -31.078125 C 26.140625 -31.078125 30.234375 -30.34375 32.859375 -29.1875 C 34.328125 -32.75 35.171875 -36.640625 35.0625 -40 C 32.125 -41.046875 27.390625 -41.78125 22.5625 -41.78125 C 10.5 -41.78125 3.15625 -36.953125 3.15625 -28.234375 C 3.15625 -20.671875 7.765625 -18.046875 17.84375 -15.53125 L 20.78125 -14.703125 C 23.9375 -13.859375 24.875 -13.015625 24.875 -11.234375 C 24.875 -10.609375 24.671875 -10.1875 24.671875 -9.96875 C 23.625 -9.546875 21.625 -9.234375 18.578125 -9.234375 C 13.328125 -9.234375 8.296875 -10.28125 5.5625 -12.078125 C 3.984375 -8.921875 3.046875 -5.453125 2.734375 -1.78125 C 6.1875 0.3125 10.609375 1.578125 17.84375 1.578125 Z M 17.84375 1.578125 "/></g></g></g><g fill="#1c2f57" fill-opacity="1"><g transform="translate(138.370651, 72.741327)"><g><path d="M 9.859375 -46.296875 L 21.203125 -54.484375 C 21.203125 -54.484375 17 -60.671875 13.015625 -65.703125 C 6.71875 -62.34375 1.671875 -57.109375 1.671875 -57.109375 Z M 5.25 0.3125 C 11.015625 1.265625 16.578125 0.53125 18.46875 -0.3125 L 18.46875 -40.625 C 13.75 -40.9375 8.71875 -40.203125 4.296875 -38.625 C 4.9375 -25.609375 5.25 -12.703125 5.25 0.3125 Z M 5.25 0.3125 "/></g></g></g><g fill="#1c2f57" fill-opacity="1"><g transform="translate(161.673756, 72.741327)"><g><path d="M 17.84375 1.578125 C 29.8125 1.578125 37.265625 -3.15625 37.265625 -12.390625 C 37.265625 -19.53125 32.328125 -22.5625 22.671875 -24.984375 L 19.734375 -25.828125 C 16.484375 -26.765625 15.53125 -27.390625 15.53125 -29.28125 C 15.53125 -29.8125 15.75 -30.234375 15.75 -30.546875 C 16.6875 -30.859375 18.890625 -31.078125 21.625 -31.078125 C 26.140625 -31.078125 30.234375 -30.34375 32.859375 -29.1875 C 34.328125 -32.75 35.171875 -36.640625 35.0625 -40 C 32.125 -41.046875 27.390625 -41.78125 22.5625 -41.78125 C 10.5 -41.78125 3.15625 -36.953125 3.15625 -28.234375 C 3.15625 -20.671875 7.765625 -18.046875 17.84375 -15.53125 L 20.78125 -14.703125 C 23.9375 -13.859375 24.875 -13.015625 24.875 -11.234375 C 24.875 -10.609375 24.671875 -10.1875 24.671875 -9.96875 C 23.625 -9.546875 21.625 -9.234375 18.578125 -9.234375 C 13.328125 -9.234375 8.296875 -10.28125 5.5625 -12.078125 C 3.984375 -8.921875 3.046875 -5.453125 2.734375 -1.78125 C 6.1875 0.3125 10.609375 1.578125 17.84375 1.578125 Z M 17.84375 1.578125 "/></g></g></g><g fill="#4c8bb7" fill-opacity="1"><g transform="translate(201.256752, 72.741327)"><g><path d="M 19.734375 0.3125 C 25.71875 1.265625 31.28125 0.53125 33.375 -0.3125 L 33.375 -45.234375 L 50.390625 -45.234375 C 51.125 -48.5 51.125 -53.953125 50.390625 -57.203125 L 2.09375 -57.203125 C 1.359375 -53.953125 1.359375 -48.5 2.09375 -45.234375 L 19.109375 -45.234375 C 19.421875 -33.171875 19.625 -14.28125 19.734375 0.3125 Z M 19.734375 0.3125 "/></g></g></g><g fill="#4c8bb7" fill-opacity="1"><g transform="translate(253.741229, 72.741327)"><g><path d="M 24.359375 -41.78125 C 10.390625 -41.78125 2.421875 -33.375 2.421875 -19.84375 C 2.421875 -6.40625 10.28125 1.578125 25.09375 1.578125 C 31.484375 1.578125 37.265625 0.53125 42.09375 -1.46875 C 41.78125 -5.359375 41.046875 -8.71875 39.359375 -11.859375 C 36.109375 -10.5 30.96875 -9.65625 26.875 -9.65625 C 20.890625 -9.65625 16.375 -11.4375 15.109375 -17.53125 L 43.25 -17.53125 C 44.609375 -34.640625 35.171875 -41.78125 24.359375 -41.78125 Z M 15.015625 -25.40625 C 15.21875 -28.125 15.84375 -29.703125 16.6875 -30.859375 C 18.15625 -31.484375 20.578125 -31.8125 22.359375 -31.8125 C 26.875 -31.8125 29.703125 -29.703125 29.8125 -25.40625 Z M 15.015625 -25.40625 "/></g></g></g><g fill="#4c8bb7" fill-opacity="1"><g transform="translate(299.71764, 72.741327)"><g><path d="M 17.84375 1.578125 C 29.8125 1.578125 37.265625 -3.15625 37.265625 -12.390625 C 37.265625 -19.53125 32.328125 -22.5625 22.671875 -24.984375 L 19.734375 -25.828125 C 16.484375 -26.765625 15.53125 -27.390625 15.53125 -29.28125 C 15.53125 -29.8125 15.75 -30.234375 15.75 -30.546875 C 16.6875 -30.859375 18.890625 -31.078125 21.625 -31.078125 C 26.140625 -31.078125 30.234375 -30.34375 32.859375 -29.1875 C 34.328125 -32.75 35.171875 -36.640625 35.0625 -40 C 32.125 -41.046875 27.390625 -41.78125 22.5625 -41.78125 C 10.5 -41.78125 3.15625 -36.953125 3.15625 -28.234375 C 3.15625 -20.671875 7.765625 -18.046875 17.84375 -15.53125 L 20.78125 -14.703125 C 23.9375 -13.859375 24.875 -13.015625 24.875 -11.234375 C 24.875 -10.609375 24.671875 -10.1875 24.671875 -9.96875 C 23.625 -9.546875 21.625 -9.234375 18.578125 -9.234375 C 13.328125 -9.234375 8.296875 -10.28125 5.5625 -12.078125 C 3.984375 -8.921875 3.046875 -5.453125 2.734375 -1.78125 C 6.1875 0.3125 10.609375 1.578125 17.84375 1.578125 Z M 17.84375 1.578125 "/></g></g></g><g fill="#4c8bb7" fill-opacity="1"><g transform="translate(339.290943, 72.741327)"><g><path d="M 9.859375 -46.296875 L 21.203125 -54.484375 C 21.203125 -54.484375 17 -60.671875 13.015625 -65.703125 C 6.71875 -62.34375 1.671875 -57.109375 1.671875 -57.109375 Z M 5.25 0.3125 C 11.015625 1.265625 16.578125 0.53125 18.46875 -0.3125 L 18.46875 -40.625 C 13.75 -40.9375 8.71875 -40.203125 4.296875 -38.625 C 4.9375 -25.609375 5.25 -12.703125 5.25 0.3125 Z M 5.25 0.3125 "/></g></g></g><g fill="#4c8bb7" fill-opacity="1"><g transform="translate(362.594049, 72.741327)"><g><path d="M 17.84375 1.578125 C 29.8125 1.578125 37.265625 -3.15625 37.265625 -12.390625 C 37.265625 -19.53125 32.328125 -22.5625 22.671875 -24.984375 L 19.734375 -25.828125 C 16.484375 -26.765625 15.53125 -27.390625 15.53125 -29.28125 C 15.53125 -29.8125 15.75 -30.234375 15.75 -30.546875 C 16.6875 -30.859375 18.890625 -31.078125 21.625 -31.078125 C 26.140625 -31.078125 30.234375 -30.34375 32.859375 -29.1875 C 34.328125 -32.75 35.171875 -36.640625 35.0625 -40 C 32.125 -41.046875 27.390625 -41.78125 22.5625 -41.78125 C 10.5 -41.78125 3.15625 -36.953125 3.15625 -28.234375 C 3.15625 -20.671875 7.765625 -18.046875 17.84375 -15.53125 L 20.78125 -14.703125 C 23.9375 -13.859375 24.875 -13.015625 24.875 -11.234375 C 24.875 -10.609375 24.671875 -10.1875 24.671875 -9.96875 C 23.625 -9.546875 21.625 -9.234375 18.578125 -9.234375 C 13.328125 -9.234375 8.296875 -10.28125 5.5625 -12.078125 C 3.984375 -8.921875 3.046875 -5.453125 2.734375 -1.78125 C 6.1875 0.3125 10.609375 1.578125 17.84375 1.578125 Z M 17.84375 1.578125 "/></g></g></g></svg>