<svg xmlns="http://www.w3.org/2000/svg" xmlns:xlink="http://www.w3.org/1999/xlink" width="57" zoomAndPan="magnify" viewBox="0 0 42.75 42.749999" height="57" preserveAspectRatio="xMidYMid meet" version="1.0"><path fill="#4c8bb7" d="M 40.976562 20.488281 C 40.976562 21.160156 40.945312 21.828125 40.878906 22.496094 C 40.8125 23.164062 40.714844 23.828125 40.582031 24.484375 C 40.453125 25.144531 40.289062 25.792969 40.09375 26.433594 C 39.898438 27.078125 39.675781 27.707031 39.417969 28.328125 C 39.160156 28.949219 38.875 29.554688 38.558594 30.144531 C 38.242188 30.738281 37.898438 31.3125 37.523438 31.871094 C 37.152344 32.429688 36.753906 32.964844 36.328125 33.484375 C 35.902344 34.003906 35.449219 34.5 34.976562 34.976562 C 34.503906 35.449219 34.003906 35.898438 33.488281 36.324219 C 32.96875 36.75 32.429688 37.148438 31.871094 37.523438 C 31.3125 37.894531 30.738281 38.242188 30.148438 38.558594 C 29.554688 38.871094 28.949219 39.160156 28.328125 39.417969 C 27.710938 39.671875 27.078125 39.898438 26.4375 40.09375 C 25.792969 40.289062 25.144531 40.453125 24.488281 40.582031 C 23.828125 40.714844 23.164062 40.8125 22.496094 40.878906 C 21.828125 40.941406 21.160156 40.976562 20.488281 40.976562 C 19.820312 40.976562 19.148438 40.941406 18.480469 40.878906 C 17.8125 40.8125 17.152344 40.714844 16.492188 40.582031 C 15.835938 40.453125 15.183594 40.289062 14.542969 40.09375 C 13.898438 39.898438 13.269531 39.671875 12.648438 39.417969 C 12.027344 39.160156 11.421875 38.871094 10.832031 38.558594 C 10.238281 38.242188 9.664062 37.894531 9.105469 37.523438 C 8.550781 37.148438 8.011719 36.75 7.492188 36.324219 C 6.972656 35.898438 6.476562 35.449219 6.003906 34.976562 C 5.527344 34.5 5.078125 34.003906 4.652344 33.484375 C 4.226562 32.964844 3.828125 32.429688 3.453125 31.871094 C 3.082031 31.3125 2.738281 30.738281 2.421875 30.144531 C 2.105469 29.554688 1.816406 28.949219 1.5625 28.328125 C 1.304688 27.707031 1.078125 27.078125 0.882812 26.433594 C 0.6875 25.792969 0.527344 25.144531 0.394531 24.484375 C 0.265625 23.828125 0.167969 23.164062 0.101562 22.496094 C 0.0351562 21.828125 0 21.160156 0 20.488281 C 0 19.816406 0.0351562 19.148438 0.101562 18.480469 C 0.167969 17.8125 0.265625 17.148438 0.394531 16.492188 C 0.527344 15.832031 0.6875 15.183594 0.882812 14.539062 C 1.078125 13.898438 1.304688 13.269531 1.5625 12.648438 C 1.816406 12.027344 2.105469 11.421875 2.421875 10.832031 C 2.738281 10.238281 3.082031 9.664062 3.453125 9.105469 C 3.828125 8.546875 4.226562 8.007812 4.652344 7.492188 C 5.078125 6.972656 5.527344 6.476562 6.003906 6 C 6.476562 5.527344 6.972656 5.078125 7.492188 4.652344 C 8.011719 4.226562 8.550781 3.824219 9.105469 3.453125 C 9.664062 3.082031 10.238281 2.734375 10.832031 2.417969 C 11.421875 2.101562 12.027344 1.816406 12.648438 1.558594 C 13.269531 1.304688 13.898438 1.078125 14.542969 0.882812 C 15.183594 0.6875 15.835938 0.523438 16.492188 0.394531 C 17.152344 0.261719 17.8125 0.164062 18.480469 0.0976562 C 19.148438 0.0351562 19.820312 0 20.488281 0 C 21.160156 0 21.828125 0.0351562 22.496094 0.0976562 C 23.164062 0.164062 23.828125 0.261719 24.488281 0.394531 C 25.144531 0.523438 25.792969 0.6875 26.4375 0.882812 C 27.078125 1.078125 27.710938 1.304688 28.328125 1.558594 C 28.949219 1.816406 29.554688 2.101562 30.148438 2.417969 C 30.738281 2.734375 31.3125 3.082031 31.871094 3.453125 C 32.429688 3.824219 32.96875 4.226562 33.488281 4.652344 C 34.003906 5.078125 34.503906 5.527344 34.976562 6 C 35.449219 6.476562 35.902344 6.972656 36.328125 7.492188 C 36.753906 8.007812 37.152344 8.546875 37.523438 9.105469 C 37.898438 9.664062 38.242188 10.238281 38.558594 10.832031 C 38.875 11.421875 39.160156 12.027344 39.417969 12.648438 C 39.675781 13.269531 39.898438 13.898438 40.09375 14.539062 C 40.289062 15.183594 40.453125 15.832031 40.582031 16.492188 C 40.714844 17.148438 40.8125 17.8125 40.878906 18.480469 C 40.945312 19.148438 40.976562 19.816406 40.976562 20.488281 Z M 40.976562 20.488281 " fill-opacity="1" fill-rule="nonzero"/><path fill="#ffffff" d="M 25.632812 21.542969 L 26.210938 17.050781 L 21.761719 17.050781 L 21.761719 14.183594 C 21.761719 12.882812 22.125 11.996094 23.992188 11.996094 L 26.367188 11.996094 L 26.367188 7.976562 C 25.957031 7.921875 24.546875 7.800781 22.902344 7.800781 C 19.472656 7.800781 17.125 9.894531 17.125 13.738281 L 17.125 17.050781 L 13.246094 17.050781 L 13.246094 21.542969 L 17.125 21.542969 L 17.125 33.066406 L 21.761719 33.066406 L 21.761719 21.542969 Z M 25.632812 21.542969 " fill-opacity="1" fill-rule="nonzero"/></svg>