<svg xmlns="http://www.w3.org/2000/svg" xmlns:xlink="http://www.w3.org/1999/xlink" width="57" zoomAndPan="magnify" viewBox="0 0 42.75 42.749999" height="57" preserveAspectRatio="xMidYMid meet" version="1.0"><defs><clipPath id="f213c068a6"><path d="M 0 0 L 42.5 0 L 42.5 42.5 L 0 42.5 Z M 0 0 " clip-rule="nonzero"/></clipPath></defs><path fill="#4c8bb7" d="M 21.25 16.539062 C 18.65625 16.539062 16.539062 18.65625 16.539062 21.25 C 16.539062 23.84375 18.65625 25.960938 21.25 25.960938 C 23.84375 25.960938 25.960938 23.84375 25.960938 21.25 C 25.960938 18.65625 23.84375 16.539062 21.25 16.539062 Z M 21.25 16.539062 " fill-opacity="1" fill-rule="nonzero"/><path fill="#4c8bb7" d="M 27.578125 9.695312 L 14.921875 9.695312 C 12.050781 9.695312 9.695312 12.03125 9.695312 14.921875 L 9.695312 27.578125 C 9.695312 30.449219 12.03125 32.804688 14.921875 32.804688 L 27.578125 32.804688 C 30.449219 32.804688 32.804688 30.46875 32.804688 27.578125 L 32.804688 14.921875 C 32.785156 12.03125 30.449219 9.695312 27.578125 9.695312 Z M 21.25 28.335938 C 17.332031 28.335938 14.148438 25.152344 14.148438 21.230469 C 14.148438 17.3125 17.332031 14.128906 21.25 14.128906 C 25.167969 14.128906 28.351562 17.3125 28.351562 21.230469 C 28.335938 25.152344 25.152344 28.335938 21.25 28.335938 Z M 28.847656 15.328125 C 27.910156 15.328125 27.136719 14.554688 27.136719 13.613281 C 27.136719 12.675781 27.910156 11.902344 28.847656 11.902344 C 29.789062 11.902344 30.5625 12.675781 30.5625 13.613281 C 30.5625 14.570312 29.804688 15.328125 28.847656 15.328125 Z M 28.847656 15.328125 " fill-opacity="1" fill-rule="nonzero"/><g clip-path="url(#f213c068a6)"><path fill="#4c8bb7" d="M 21.25 0 C 9.511719 0 0 9.511719 0 21.25 C 0 32.988281 9.511719 42.5 21.25 42.5 C 32.988281 42.5 42.5 32.988281 42.5 21.25 C 42.484375 9.511719 32.972656 0 21.25 0 Z M 35.179688 27.578125 C 35.179688 31.773438 31.757812 35.195312 27.5625 35.195312 L 14.921875 35.195312 C 10.726562 35.195312 7.304688 31.773438 7.304688 27.578125 L 7.304688 14.921875 C 7.304688 10.726562 10.726562 7.304688 14.921875 7.304688 L 27.578125 7.304688 C 31.773438 7.304688 35.195312 10.726562 35.195312 14.921875 L 35.195312 27.578125 Z M 35.179688 27.578125 " fill-opacity="1" fill-rule="nonzero"/></g></svg>