<svg xmlns="http://www.w3.org/2000/svg" xmlns:xlink="http://www.w3.org/1999/xlink" width="57" zoomAndPan="magnify" viewBox="0 0 42.75 42.749999" height="57" preserveAspectRatio="xMidYMid meet" version="1.0"><defs><clipPath id="f0ed9c8e33"><path d="M 0 0 L 42.5 0 L 42.5 42.5 L 0 42.5 Z M 0 0 " clip-rule="nonzero"/></clipPath><clipPath id="a3b99e6f97"><path d="M 9.152344 10.695312 L 32.265625 10.695312 L 32.265625 33.808594 L 9.152344 33.808594 Z M 9.152344 10.695312 " clip-rule="nonzero"/></clipPath></defs><g clip-path="url(#f0ed9c8e33)"><path fill="#4c8bb7" d="M 21.25 -0.109375 C 9.574219 -0.109375 0.109375 9.355469 0.109375 21.035156 C 0.109375 24.910156 1.152344 28.550781 2.976562 31.675781 L 0.191406 40.035156 C -0.00390625 40.621094 0.148438 41.265625 0.585938 41.699219 C 1.019531 42.136719 1.664062 42.289062 2.25 42.09375 L 10.609375 39.304688 C 13.734375 41.132812 17.375 42.175781 21.25 42.175781 C 32.925781 42.175781 42.394531 32.710938 42.394531 21.035156 C 42.394531 9.355469 32.925781 -0.109375 21.25 -0.109375 Z M 21.25 -0.109375 " fill-opacity="1" fill-rule="nonzero"/></g><path fill="#4c8bb7" d="M 15.289062 19.949219 C 15.289062 17.253906 17.472656 15.070312 20.167969 15.070312 L 22.335938 15.070312 C 25.03125 15.070312 27.214844 17.253906 27.214844 19.949219 L 27.214844 22.117188 C 27.214844 24.8125 25.03125 26.996094 22.335938 26.996094 L 20.167969 26.996094 C 17.472656 26.996094 15.289062 24.8125 15.289062 22.117188 Z M 20.167969 18.324219 C 19.269531 18.324219 18.539062 19.050781 18.539062 19.949219 L 18.539062 22.117188 C 18.539062 23.015625 19.269531 23.746094 20.167969 23.746094 L 22.335938 23.746094 C 23.234375 23.746094 23.960938 23.015625 23.960938 22.117188 L 23.960938 19.949219 C 23.960938 19.050781 23.234375 18.324219 22.335938 18.324219 Z M 20.167969 18.324219 " fill-opacity="1" fill-rule="evenodd"/><path fill="#4c8bb7" d="M 7.699219 21.035156 C 7.699219 14.148438 13.28125 8.566406 20.167969 8.566406 L 25.585938 8.566406 C 30.675781 8.566406 34.804688 12.691406 34.804688 17.78125 L 34.804688 21.574219 C 34.804688 24.570312 32.375 26.996094 29.382812 26.996094 C 26.386719 26.996094 23.960938 24.570312 23.960938 21.574219 L 23.960938 21.035156 C 23.960938 20.136719 24.6875 19.40625 25.585938 19.40625 C 26.484375 19.40625 27.214844 20.136719 27.214844 21.035156 L 27.214844 21.574219 C 27.214844 22.773438 28.183594 23.746094 29.382812 23.746094 C 30.578125 23.746094 31.550781 22.773438 31.550781 21.574219 L 31.550781 17.78125 C 31.550781 14.488281 28.882812 11.816406 25.585938 11.816406 L 20.167969 11.816406 C 15.078125 11.816406 10.949219 15.945312 10.949219 21.035156 C 10.949219 26.125 15.078125 30.25 20.167969 30.25 L 25.195312 30.25 C 26.628906 30.25 28.039062 29.917969 29.316406 29.277344 L 31.367188 28.253906 C 32.167969 27.851562 33.144531 28.175781 33.546875 28.980469 C 33.949219 29.785156 33.625 30.761719 32.820312 31.164062 L 30.773438 32.1875 C 29.042969 33.050781 27.132812 33.503906 25.195312 33.503906 L 20.167969 33.503906 C 13.28125 33.503906 7.699219 27.921875 7.699219 21.035156 Z M 7.699219 21.035156 " fill-opacity="1" fill-rule="evenodd"/><g clip-path="url(#a3b99e6f97)"><path fill="#ffffff" d="M 32.09375 27.75 C 32.265625 28.203125 32.363281 28.691406 32.378906 29.199219 C 32.382812 29.246094 32.382812 29.296875 32.382812 29.347656 C 32.382812 31.875 30.332031 33.925781 27.800781 33.925781 C 17.5 33.925781 9.152344 25.578125 9.152344 15.277344 C 9.152344 12.746094 11.203125 10.695312 13.730469 10.695312 C 13.78125 10.695312 13.832031 10.695312 13.878906 10.699219 C 14.386719 10.714844 14.875 10.8125 15.328125 10.984375 L 17.050781 18.429688 C 17.050781 18.433594 17.046875 18.433594 17.042969 18.4375 L 13.890625 19.851562 L 13.878906 19.855469 C 15.328125 24.265625 18.8125 27.75 23.222656 29.195312 L 23.222656 29.1875 L 24.644531 26.03125 L 32.09375 27.75 " fill-opacity="1" fill-rule="nonzero"/></g></svg>